<?xml version="1.0" encoding="UTF-8"?>
<svg class="svg-inline--fa fa-dice fa-w-20" width="30" height="24" aria-hidden="true" data-icon="dice" data-prefix="fas" focusable="false" role="img" version="1.1" viewBox="0 0 30 24" xmlns="http://www.w3.org/2000/svg" xmlns:cc="http://creativecommons.org/ns#" xmlns:dc="http://purl.org/dc/elements/1.1/" xmlns:rdf="http://www.w3.org/1999/02/22-rdf-syntax-ns#">
 <metadata>
  <rdf:RDF>
   <cc:Work rdf:about="">
    <dc:format>image/svg+xml</dc:format>
    <dc:type rdf:resource="http://purl.org/dc/dcmitype/StillImage"/>
    <dc:title/>
   </cc:Work>
  </rdf:RDF>
 </metadata>
 <path d="m27.75 9h-5.5659c0.59485 1.387 0.33375 3.0562-0.79687 4.1868l-6.3871 6.3871v2.1759c0 1.2427 1.0073 2.25 2.25 2.25h10.5c1.2427 0 2.25-1.0073 2.25-2.25v-10.5c0-1.2427-1.0073-2.25-2.25-2.25zm-5.25 8.625c-0.62109 0-1.125-0.50391-1.125-1.125 0-0.62157 0.50391-1.125 1.125-1.125 0.62109 0 1.125 0.50343 1.125 1.125 0 0.62109-0.50391 1.125-1.125 1.125zm-2.1736-8.7516-8.1999-8.1999c-0.89812-0.89812-2.3545-0.89812-3.2526 0l-8.2003 8.1999c-0.89812 0.89812-0.89812 2.3545 0 3.2526l8.1999 8.2003c0.89812 0.89812 2.3545 0.89812 3.2526 0l8.2003-8.1999c0.89812-0.8986 0.89812-2.355 0-3.2532zm-15.826 2.7516c-0.62109 0-1.125-0.50391-1.125-1.125 0-0.62157 0.50391-1.125 1.125-1.125s1.125 0.50343 1.125 1.125c0 0.62109-0.50391 1.125-1.125 1.125zm6 6c-0.62109 0-1.125-0.50391-1.125-1.125 0-0.62157 0.50391-1.125 1.125-1.125 0.62109 0 1.125 0.50343 1.125 1.125 0 0.62109-0.50391 1.125-1.125 1.125zm0-6c-0.62109 0-1.125-0.50391-1.125-1.125 0-0.62157 0.50391-1.125 1.125-1.125 0.62109 0 1.125 0.50343 1.125 1.125 0 0.62109-0.50391 1.125-1.125 1.125zm0-6c-0.62109 0-1.125-0.50391-1.125-1.125 0-0.62157 0.50391-1.125 1.125-1.125 0.62109 0 1.125 0.50343 1.125 1.125 0 0.62109-0.50391 1.125-1.125 1.125zm6 6c-0.62109 0-1.125-0.50391-1.125-1.125 0-0.62157 0.50391-1.125 1.125-1.125 0.62109 0 1.125 0.50343 1.125 1.125 0 0.62109-0.50391 1.125-1.125 1.125z" fill="currentColor" stroke-width=".046875"/>
</svg>
