<?xml version="1.0" encoding="UTF-8"?>
<svg class="svg-inline--fa fa-file-alt fa-w-12" width="18" height="24" aria-hidden="true" data-icon="file-alt" data-prefix="fas" focusable="false" role="img" version="1.1" viewBox="0 0 18 24" xmlns="http://www.w3.org/2000/svg" xmlns:cc="http://creativecommons.org/ns#" xmlns:dc="http://purl.org/dc/elements/1.1/" xmlns:rdf="http://www.w3.org/1999/02/22-rdf-syntax-ns#">
 <metadata>
  <rdf:RDF>
   <cc:Work rdf:about="">
    <dc:format>image/svg+xml</dc:format>
    <dc:type rdf:resource="http://purl.org/dc/dcmitype/StillImage"/>
    <dc:title/>
   </cc:Work>
  </rdf:RDF>
 </metadata>
 <path d="m10.5 6.375v-6.375h-9.375c-0.62344 0-1.125 0.50156-1.125 1.125v21.75c0 0.62344 0.50156 1.125 1.125 1.125h15.75c0.62344 0 1.125-0.50156 1.125-1.125v-15.375h-6.375c-0.61875 0-1.125-0.50625-1.125-1.125zm3 11.062c0 0.30938-0.25312 0.5625-0.5625 0.5625h-7.875c-0.30938 0-0.5625-0.25312-0.5625-0.5625v-0.375c0-0.30938 0.25312-0.5625 0.5625-0.5625h7.875c0.30938 0 0.5625 0.25312 0.5625 0.5625zm0-3c0 0.30938-0.25312 0.5625-0.5625 0.5625h-7.875c-0.30938 0-0.5625-0.25312-0.5625-0.5625v-0.375c0-0.30938 0.25312-0.5625 0.5625-0.5625h7.875c0.30938 0 0.5625 0.25312 0.5625 0.5625zm0-3.375v0.375c0 0.30938-0.25312 0.5625-0.5625 0.5625h-7.875c-0.30938 0-0.5625-0.25312-0.5625-0.5625v-0.375c0-0.30938 0.25312-0.5625 0.5625-0.5625h7.875c0.30938 0 0.5625 0.25312 0.5625 0.5625zm4.5-5.3484v0.28594h-6v-6h0.28594c0.3 0 0.58594 0.11719 0.79687 0.32813l4.5891 4.5938c0.21093 0.21093 0.32812 0.49687 0.32812 0.79218z" fill="currentColor" stroke-width=".046875"/>
</svg>
