<?xml version="1.0" encoding="UTF-8"?>
<svg class="svg-inline--fa fa-home fa-w-18" width="30.863" height="24" aria-hidden="true" data-icon="home" data-prefix="fas" focusable="false" role="img" version="1.1" viewBox="0 0 30.863 24" xmlns="http://www.w3.org/2000/svg" xmlns:cc="http://creativecommons.org/ns#" xmlns:dc="http://purl.org/dc/elements/1.1/" xmlns:rdf="http://www.w3.org/1999/02/22-rdf-syntax-ns#">
 <metadata>
  <rdf:RDF>
   <cc:Work rdf:about="">
    <dc:format>image/svg+xml</dc:format>
    <dc:type rdf:resource="http://purl.org/dc/dcmitype/StillImage"/>
    <dc:title/>
   </cc:Work>
  </rdf:RDF>
 </metadata>
 <path d="m15.022 6.2262-9.8781 8.1357v8.7808a0.85724 0.85724 0 0 0 0.85724 0.85724l6.0039-0.0155a0.85724 0.85724 0 0 0 0.85296-0.85724v-5.1279a0.85724 0.85724 0 0 1 0.85723-0.85724h3.429a0.85724 0.85724 0 0 1 0.85724 0.85724v5.1242a0.85724 0.85724 0 0 0 0.85724 0.85991l6.0018 0.0166a0.85724 0.85724 0 0 0 0.85724-0.85724v-8.7867l-9.8759-8.1298a0.65311 0.65311 0 0 0-0.81973 0zm15.603 5.5297-4.4791-3.692v-7.421a0.64293 0.64293 0 0 0-0.64293-0.64293h-3.0003a0.64293 0.64293 0 0 0-0.64293 0.64293v3.8903l-4.7968-3.9465a2.5717 2.5717 0 0 0-3.2682 0l-13.562 11.169a0.64293 0.64293 0 0 0-0.0857 0.90546l1.3662 1.6609a0.64293 0.64293 0 0 0 0.906 0.0873l12.602-10.38a0.65311 0.65311 0 0 1 0.81973 0l12.603 10.38a0.64293 0.64293 0 0 0 0.90546-0.0857l1.3662-1.6609a0.64293 0.64293 0 0 0-0.0911-0.90707z" fill="currentColor" stroke-width=".053577"/>
</svg>
